<?xml version="1.0" standalone="no"?>
<!DOCTYPE svg PUBLIC "-//W3C//DTD SVG 20010904//EN"
 "http://www.w3.org/TR/2001/REC-SVG-20010904/DTD/svg10.dtd">
<svg version="1.0" xmlns="http://www.w3.org/2000/svg"
 width="668.000000pt" height="668.000000pt" viewBox="0 0 668.000000 668.000000"
 preserveAspectRatio="xMidYMid meet">
<metadata>
Created by potrace 1.14, written by Peter Selinger 2001-2017
</metadata>
<g transform="translate(0.000000,668.000000) scale(0.100000,-0.100000)"
fill="#000000" stroke="none">
<path d="M2506 4654 c-112 -27 -229 -101 -298 -188 -81 -102 -114 -198 -125
-357 -7 -115 1 -169 25 -169 9 0 36 -13 60 -29 l42 -29 1233 4 c677 2 1264 6
1302 8 80 5 167 38 255 97 155 104 240 277 240 492 0 96 -1 100 -28 125 -16
15 -31 35 -35 45 -6 16 -77 17 -1309 16 -1088 -1 -1313 -3 -1362 -15z"/>
<path d="M2085 3726 c-4 -62 -4 -128 0 -146 6 -26 76 -103 321 -350 273 -276
324 -332 312 -342 -2 -1 -145 -4 -318 -8 l-315 -5 -3 -371 c-4 -412 1 -475 48
-571 34 -68 125 -159 195 -195 91 -47 98 -48 851 -48 429 0 733 4 765 10 30 5
92 28 138 51 112 55 195 139 251 252 47 95 60 157 60 276 0 68 -4 93 -20 119
-11 17 -24 32 -29 32 -5 0 -11 9 -14 20 -5 20 -14 20 -714 20 -538 0 -712 3
-721 12 -13 13 -17 213 -6 256 14 52 12 52 707 52 600 0 649 1 718 19 253 65
419 291 419 574 0 68 -20 137 -40 137 -6 0 -16 11 -22 25 l-11 25 -877 0
c-668 0 -879 3 -888 12 -7 7 -12 38 -12 70 0 66 -23 134 -51 149 -11 5 -19 16
-19 24 0 13 -50 15 -359 15 l-359 0 -7 -114z"/>
</g>
</svg>
